<?xml version="1.0" encoding="utf-8"?>
<!-- Generator: Adobe Illustrator 27.3.1, SVG Export Plug-In . SVG Version: 6.00 Build 0)  -->
<svg version="1.1" id="Calque_1" xmlns="http://www.w3.org/2000/svg" xmlns:xlink="http://www.w3.org/1999/xlink" x="0px" y="0px"
	 viewBox="0 0 700 700" style="enable-background:new 0 0 700 700;" xml:space="preserve">
<style type="text/css">
	.st0{fill:#FFEBF6;}
</style>
<g>
	<path class="st0" d="M568.3,457.8H131.7c-26.3,0-47.7-21.4-47.7-47.7V149.9c0-26.3,21.4-47.7,47.7-47.7h436.6
		c26.3,0,47.7,21.4,47.7,47.7v260.2C616,436.4,594.6,457.8,568.3,457.8L568.3,457.8z M131.7,122.1c-15.3,0-27.8,12.5-27.8,27.8
		v260.2c0,15.3,12.5,27.8,27.8,27.8h436.6c15.3,0,27.8-12.5,27.8-27.8V149.9c0-15.3-12.5-27.8-27.8-27.8L131.7,122.1z"/>
	<path class="st0" d="M350,287.9c-8.4,0-16.8-2.1-24.3-6.3l-21.3-11.9c-0.3-0.2-0.6-0.3-0.9-0.5L103.5,128.8
		c-4.5-3.2-5.6-9.4-2.4-13.9c3.2-4.5,9.4-5.6,13.9-2.4l199.6,140l20.8,11.7c9,5.1,20.2,5,29.2,0l20.8-11.7l199.6-140
		c4.5-3.2,10.7-2.1,13.9,2.4c3.2,4.5,2.1,10.7-2.4,13.9l-200,140.3c-0.3,0.2-0.6,0.4-0.9,0.5l-21.3,11.9
		C366.8,285.8,358.4,287.9,350,287.9L350,287.9z"/>
	<path class="st0" d="M105.6,446.1c-2.8,0-5.6-1.2-7.6-3.5c-3.6-4.2-3.1-10.5,1.1-14l203.6-175.2c4.2-3.6,10.5-3.1,14,1.1
		c3.6,4.2,3.1,10.5-1.1,14L112.1,443.7C110.2,445.3,107.9,446.1,105.6,446.1L105.6,446.1z"/>
	<path class="st0" d="M594.4,446.1c-2.3,0-4.6-0.8-6.5-2.4L384.3,268.5c-4.2-3.6-4.6-9.9-1.1-14c3.6-4.2,9.9-4.7,14-1.1l203.6,175.2
		c4.2,3.6,4.6,9.9,1.1,14C600,445,597.2,446.1,594.4,446.1L594.4,446.1z"/>
</g>
</svg>
